# xmcd
#
# Track frame offsets: 
#        150
#        22005
#        49250
#        78452
#        122210
#        142832
#        175263
#        204990
#        229880
#        254107
#        276923
#        304130
#        336967
#
# Disc length: 4795 seconds
#
# Revision: 1
# Processed by: cddbd v1.5.2PL0 Copyright (c) Steve Scherf et al.
# Submitted via: ExactAudioCopy v1.0b4
#
DISCID=c212b90d
DTITLE=Nick Moss Band - From The Root To The Fruit  disc 2
DYEAR=2016
DGENRE=Blues-Rock
TTITLE0=Catch Me I'm Falling
TTITLE1=Jupiter Florida
TTITLE2=Breakdown
TTITLE3=Serves Me Right (Space Jam)
TTITLE4=Ta Ta For Tay Tay
TTITLE5=Breathe Easy
TTITLE6=Free Will
TTITLE7=Grateful
TTITLE8=Shade Tree
TTITLE9=Stuck
TTITLE10=Stand By
TTITLE11=Speak Up
TTITLE12=Heavy Water
EXTD=
EXTT0=
EXTT1=
EXTT2=
EXTT3=
EXTT4=
EXTT5=
EXTT6=
EXTT7=
EXTT8=
EXTT9=
EXTT10=
EXTT11=
EXTT12=
PLAYORDER=
